<svg width="74" height="73" viewBox="0 0 74 73" fill="none" xmlns="http://www.w3.org/2000/svg">
<g clip-path="url(#clip0_47_2)">
<path d="M73.0654 53.9545L73.0166 4.83335C73.0166 2.05015 71.2099 0.0970535 68.2803 0.0970535H19.1592C16.4248 0.0970535 14.5693 2.19665 14.5693 4.54045C14.5693 6.88415 16.6689 8.88615 18.9639 8.88615H35.956L59.7842 8.10485L50.7021 16.0639L2.31349 64.5502C1.43459 65.4291 0.946289 66.5521 0.946289 67.6263C0.946289 69.9701 3.04589 72.1674 5.48729 72.1674C6.61029 72.1674 7.68459 71.7767 8.56349 70.849L57.0498 22.4115L65.1064 13.2807L64.2275 36.0834V54.1497C64.2275 56.4446 66.2295 58.5932 68.6221 58.5932C70.9658 58.5932 73.0654 56.5912 73.0654 53.9545Z" fill="#0066CC"/>
</g>
<defs>
<clipPath id="clip0_47_2">
<rect width="74" height="73" fill="white"/>
</clipPath>
</defs>
</svg>
